<svg width="96" height="96" fill="none" xmlns="http://www.w3.org/2000/svg">
    <path d="M40.233 62.143c-2.206 6.836-9.183 8.931-12.493 9.425-1.17 2.346.894 5.283 2.038 5.126.914-.126 4.339-2.744 5.937-4.037C43.708 67.532 41.86 68.075 48 67c6.14-1.074 10.078-2.04 12-5.5 2.5-4.5 3.597-2.725 8.327-6.25 4.73-3.527 2.698-7.702 2.237-9.249-.46-1.547-.315-4.975 1.935-7.124 1.8-1.72.81-5.913.404-7.084-.996-6.765-6.615-6.358-8.596-3.843-2.426 3.08-3.589 4.43-5.809 5.341-2.433 1-4.583 1.797-5.151 4.912-.71 3.893-.179 5.353-3.249 5.89-2.456.43-3.196 4.925-3.248 5.89-.674 5.729-1.432 3.966-4.336 5.63-2.324 1.332-1.62 4.485-2.28 6.53z" fill="#6FAB06" />
    <path fill-rule="evenodd" clip-rule="evenodd" d="M25.95 70.675a2 2 0 0 1 1.495-1.085c3.152-.47 9.052-2.382 10.885-8.06.096-.299.16-.7.222-1.29l.04-.404c.045-.468.099-1.027.184-1.547.23-1.408.788-3.29 2.743-4.41a10.845 10.845 0 0 1 2.188-.945c.356-.115.507-.17.568-.192.025-.052.066-.145.115-.3.149-.47.304-1.261.467-2.639.048-.702.287-2.22.849-3.683.293-.764.714-1.617 1.322-2.344.616-.737 1.51-1.44 2.726-1.653.636-.111.853-.235.906-.272l.011-.008a.569.569 0 0 0 .06-.13c.087-.232.16-.594.26-1.303.02-.135.04-.281.06-.436.081-.591.18-1.318.329-2.13.372-2.04 1.313-3.45 2.612-4.465 1.088-.851 2.405-1.39 3.486-1.83l.26-.107c1.669-.686 2.539-1.608 4.998-4.73 1.47-1.866 4.166-2.88 6.709-2.264 2.724.658 4.79 3.012 5.409 6.875.25.783.593 2.199.671 3.702.078 1.495-.063 3.787-1.644 5.297-.753.72-1.2 1.701-1.403 2.73-.209 1.055-.12 1.965.003 2.378.023.075.06.182.107.318.262.758.831 2.398.804 4.166-.035 2.302-1.01 4.807-3.87 6.939-2.083 1.553-3.625 2.217-4.676 2.67-.247.106-.467.201-.66.293-.462.22-.771.413-1.09.728-.344.34-.774.896-1.347 1.927-1.241 2.234-3.126 3.598-5.415 4.527-2.218.9-4.94 1.439-7.99 1.972l-.855.15c-2.508.436-3.169.55-4.056.985-.525.257-1.137.636-2.193 1.33-.264.172-.553.363-.87.573-.902.595-2.034 1.343-3.483 2.273a72.152 72.152 0 0 1-3.238 2.462c-.604.43-1.217.844-1.757 1.166-.27.16-.548.315-.815.44a3.646 3.646 0 0 1-1.027.326c-1.147.158-2.062-.456-2.544-.871-.563-.486-1.043-1.13-1.397-1.827-.694-1.363-1.118-3.38-.158-5.302zm9.765 1.982c4.658-2.987 5.974-4.049 7.476-4.627 1.076-.415 2.247-.582 4.81-1.03 6.14-1.074 10.077-2.04 12-5.5 1.507-2.714 2.505-3.145 4.096-3.834 1.048-.453 2.353-1.017 4.23-2.417 4.285-3.194 3.02-6.921 2.402-8.745a15.16 15.16 0 0 1-.165-.503c-.46-1.547-.315-4.975 1.935-7.124 1.8-1.72.81-5.913.404-7.084-.995-6.765-6.615-6.358-8.596-3.843-2.426 3.08-3.589 4.43-5.809 5.341l-.208.086c-2.347.962-4.391 1.8-4.943 4.826-.14.763-.23 1.433-.31 2.02-.33 2.41-.47 3.438-2.939 3.87-2.456.43-3.196 4.925-3.248 5.89-.494 4.2-1.033 4.373-2.43 4.823-.509.163-1.131.363-1.906.808-1.593.912-1.764 2.68-1.926 4.361-.074.772-.147 1.525-.355 2.168-2.206 6.836-9.183 8.931-12.493 9.425-1.17 2.346.894 5.283 2.038 5.126.914-.126 4.339-2.744 5.937-4.037zm8.528-19.862.009-.012a.053.053 0 0 1-.009.012z" fill="#35700D" />
    <path d="M45.352 71.363c-6.936 1.868-9.371 8.734-10.027 12.015-2.4 1.055-5.233-1.152-5.02-2.286.171-.907 2.954-4.2 4.324-5.732 5.511-7.733 3.646-7.544 5.472-13.504 1.18-3.856 3.337-9.012 5.696-10.854 3.119-2.436 2.89-4.119 7.819-7.361 2.447-1.61 6.228-2.016 9.347-1.78 1.61.12 4.614.132 7.21-1.583 2.077-1.372 4.541-1.642 7.096-.056 2.637 1.638 4.575 6.653 3.416 8.774-1.88 3.44-4.295 2.717-5.62 5.54-1.118 2.381-1.366 3.19-4.221 4.558-2.344 1.123-4.5 0-6.98 3.301-1.497 1.994-4.517 2.544-6.042 2.956-4.134 1.118-3.947 2.055-5.837 4.055-1.84 1.946-4.558 1.398-6.633 1.957z" fill="#81BE15" />
    <path fill-rule="evenodd" clip-rule="evenodd" d="M37.287 83.77a2 2 0 0 1-1.157 1.44c-1.968.863-3.961.341-5.288-.418-.68-.389-1.3-.9-1.756-1.486-.392-.501-.96-1.446-.746-2.583.079-.42.258-.787.376-1.01.138-.261.306-.531.48-.792.348-.524.792-1.116 1.25-1.698a72.116 72.116 0 0 1 2.618-3.113c2.663-3.746 3.399-5.384 3.753-6.69.149-.551.235-1.05.35-1.716.034-.203.072-.422.115-.662.177-.995.42-2.183.906-3.772.613-2.002 1.484-4.359 2.523-6.477 1.003-2.045 2.296-4.15 3.855-5.367 1.1-.86 1.673-1.56 2.403-2.45.165-.202.338-.413.527-.638 1.059-1.261 2.376-2.628 5.02-4.368l1.1 1.671c-2.893 1.903-4.009 3.269-5.068 4.565-.746.912-1.463 1.79-2.751 2.796C43.437 52.844 41.28 58 40.1 61.856c-.556 1.815-.77 3.06-.954 4.132-.42 2.448-.685 3.995-4.518 9.372-1.37 1.532-4.153 4.825-4.323 5.732-.213 1.134 2.618 3.34 5.02 2.286.655-3.281 3.09-10.147 10.026-12.015.647-.174 1.356-.241 2.082-.31 1.603-.15 3.285-.308 4.551-1.647.428-.452.749-.85 1.038-1.208.988-1.225 1.6-1.982 4.798-2.847.177-.048.374-.097.587-.15 1.618-.41 4.132-1.043 5.456-2.806 1.646-2.19 3.149-2.433 4.66-2.677.764-.123 1.531-.246 2.32-.624 2.697-1.292 3.067-2.086 4.042-4.176l.179-.383c.64-1.364 1.536-1.9 2.503-2.478 1.033-.618 2.147-1.284 3.117-3.061 1.159-2.12-.779-7.136-3.416-8.774-2.555-1.587-5.019-1.316-7.095.056l-1.103-1.67c2.674-1.765 5.982-2.117 9.253-.085 1.823 1.133 3.185 3.234 3.941 5.181.39 1.006.663 2.077.74 3.106.076.997-.018 2.144-.564 3.145-1.194 2.185-2.631 3.09-3.745 3.758-1.014.608-1.442.867-1.82 1.673l-.178.38c-.438.943-.88 1.898-1.555 2.708-.83.997-1.907 1.692-3.435 2.424-.816.39-1.587.57-2.236.689-.294.053-.526.09-.73.123-.313.05-.562.089-.873.163-.718.171-1.463.469-2.406 1.724-1.074 1.43-2.606 2.238-3.888 2.735-1 .386-2.05.65-2.754.827-.185.047-.347.088-.477.123-1.943.525-2.587.937-2.958 1.264-.215.19-.406.412-.718.798l-.09.111c-.288.357-.656.813-1.14 1.325-1.364 1.444-3.025 1.898-4.383 2.102-.501.076-1.026.125-1.475.167l-.376.036c-.56.056-.981.115-1.333.21-5.761 1.55-7.96 7.35-8.584 10.475zm32.887-43.492c-2.597 1.715-5.602 1.704-7.211 1.582-3.12-.235-6.9.171-9.347 1.781l-1.1-1.67c2.997-1.972 7.317-2.352 10.597-2.105 1.495.113 3.935.08 5.958-1.257l1.103 1.669z" fill="#488B18" />
    <path fill-rule="evenodd" clip-rule="evenodd" d="M76.047 45.332a.5.5 0 0 1-.478.521c-2.57.112-7.738 1.815-14.683 6.702-6.927 4.876-15.581 12.893-25.124 25.56a.5.5 0 1 1-.799-.602c9.594-12.735 18.322-20.83 25.348-25.776 7.009-4.932 12.365-6.759 15.215-6.883a.5.5 0 0 1 .521.478z" fill="#9BDB28" />
    <path fill-rule="evenodd" clip-rule="evenodd" d="M58.738 45.157a.5.5 0 0 1 .293.644 20.618 20.618 0 0 0-.96 3.704c-.241 1.497-.308 3.062.019 4.298.523.851 2.447 2.682 6.055 2.822a.5.5 0 1 1-.04 1c-4.016-.157-6.263-2.243-6.913-3.376a.503.503 0 0 1-.049-.115c-.403-1.454-.312-3.216-.058-4.789a21.598 21.598 0 0 1 1.01-3.895.5.5 0 0 1 .643-.293zM69.38 42.989a.5.5 0 0 1 .07.703 9.412 9.412 0 0 0-1.159 1.88c-.372.8-.634 1.673-.607 2.464.293.862 1.7 2.812 5.23 3.09a.5.5 0 1 1-.078.998c-3.992-.316-5.751-2.603-6.127-3.855a.498.498 0 0 1-.02-.117c-.057-1.042.282-2.113.695-3.002.417-.895.934-1.655 1.292-2.092a.5.5 0 0 1 .704-.07zM47.286 53.152a.5.5 0 0 1 .312.634c-.342 1.008-.78 2.748-.966 4.656-.184 1.889-.114 3.886.494 5.492a.621.621 0 0 0 .058.026c.12.048.336.102.686.127.7.05 1.853-.019 3.654-.39a.5.5 0 0 1 .202.98c-1.849.38-3.102.467-3.927.408-.412-.03-.739-.097-.986-.196-.224-.09-.481-.244-.59-.516l-.001-.003c-.717-1.832-.778-4.043-.585-6.025.193-1.99.649-3.805 1.015-4.88a.5.5 0 0 1 .634-.313zm-.19 10.764.003.003a.014.014 0 0 1-.003-.003z" fill="#9BDB28" />
    <path d="M36.901 61.86c-.737 6.637-7.21 10.588-10.353 11.734-.678 2.534 1.933 4.998 3.022 4.615.87-.307 3.702-3.557 5.009-5.144 6.806-6.621 10.475-5.98 16.276-8.26 5.8-2.283 6.859-4.104 6.776-8.06-.084-3.958-1.188-4.294 2.74-8.695 3.929-4.402 2.048-6.881 1.287-8.305-.76-1.423-1.903-3.558-.129-6.114 1.42-2.046.51-4.69-.121-5.756-2.33-6.428-7.818-6.672-9.18-1.965-1.091 3.765-2.592 4.253-3.206 4.026-.98-.22-2.922.134-2.855 3.3.084 3.956-.548 8.648-3.449 9.788a3.781 3.781 0 0 0-2.474 4.011c.487 5.748-.632 4.692-3.144 6.904-2.01 1.77-.97 6.018-.199 7.921z" fill="#A5E238" />
    <path fill-rule="evenodd" clip-rule="evenodd" d="M26.548 73.594c3.144-1.146 9.616-5.097 10.353-11.734-.771-1.903-1.811-6.151.199-7.921a13.207 13.207 0 0 1 1.503-1.127c1.437-.959 2.016-1.345 1.64-5.777a3.781 3.781 0 0 1 2.475-4.01c2.9-1.142 3.533-5.833 3.45-9.79-.068-3.165 1.875-3.518 2.854-3.299.614.227 2.115-.26 3.205-4.026 1.363-4.707 6.852-4.463 9.18 1.965.633 1.066 1.541 3.71.122 5.755-1.774 2.557-.632 4.692.13 6.115.053.102.113.208.176.32.822 1.466 2.186 3.896-1.464 7.985-3.146 3.524-3.064 4.442-2.864 6.7.05.562.107 1.206.123 1.994.084 3.957-.974 5.779-6.775 8.06-1.546.608-2.94 1.009-4.283 1.394-3.696 1.061-7 2.01-11.993 6.867-1.307 1.587-4.138 4.837-5.01 5.144-1.088.382-3.699-2.081-3.021-4.615zm9.503.829a71.99 71.99 0 0 1-2.679 3.06 27.483 27.483 0 0 1-1.488 1.493 9.395 9.395 0 0 1-.71.594c-.203.151-.539.384-.94.525-1.093.385-2.113-.034-2.668-.344-.648-.363-1.247-.898-1.735-1.51-.952-1.197-1.77-3.088-1.215-5.163a2 2 0 0 1 1.247-1.363c1.347-.49 3.513-1.632 5.4-3.392 1.772-1.651 3.182-3.734 3.588-6.228-.39-1.087-.783-2.585-.889-4.108-.115-1.67.077-4.018 1.816-5.55.68-.597 1.283-1 1.711-1.285.04-.028.08-.053.117-.078.474-.318.544-.398.574-.44.005-.006.023-.03.048-.105.028-.084.067-.238.094-.504.055-.547.048-1.396-.067-2.77-.199-1.546.3-4.742 3.731-6.092.572-.225 1.2-.92 1.65-2.52.434-1.539.572-3.478.532-5.366-.042-1.99.554-3.586 1.823-4.552 1.046-.796 2.239-.92 3.123-.802.254-.272.732-.98 1.192-2.57.902-3.113 3.426-5.069 6.447-4.614 2.779.419 5.153 2.77 6.474 6.29.413.748.842 1.86.996 3.113.168 1.37.022 3.082-1.05 4.629-.585.842-.637 1.495-.553 2.037.1.647.405 1.252.802 1.994.034.063.078.14.13.23.369.646 1.127 1.97 1.218 3.639.112 2.032-.71 4.249-2.906 6.71-1.954 2.189-2.303 3.009-2.4 3.54-.052.289-.052.617 0 1.25l.033.378c.05.564.115 1.29.133 2.153.045 2.139-.2 4.16-1.613 5.943-1.33 1.677-3.481 2.86-6.43 4.02-1.788.704-3.298 1.136-4.688 1.535-3.526 1.011-6.28 1.8-10.848 6.223z" fill="#519E1B" />
    <path d="M28.537 78.002c1.153-1.08 3.086-3.558 4.077-4.895 4.738-5.105 7.99-6.22 11.627-7.47 1.321-.453 2.694-.924 4.206-1.61 5.677-2.575 6.641-4.448 6.356-8.395-.057-.787-.147-1.427-.225-1.986-.315-2.244-.443-3.157 2.519-6.838 3.435-4.27 1.95-6.627 1.054-8.048-.069-.11-.134-.212-.193-.31-.833-1.383-2.082-3.457-.441-6.1 1.313-2.116.27-4.71-.415-5.742-.691-1.641-1.575-2.852-2.523-3.662 2.213-.947 5.248.568 6.828 4.93.632 1.066 1.541 3.71.122 5.755-1.774 2.556-.632 4.691.13 6.115.053.1.113.207.176.32.822 1.465 2.185 3.895-1.464 7.984-3.146 3.524-3.064 4.442-2.864 6.7.05.562.107 1.206.123 1.994.084 3.957-.974 5.779-6.775 8.06-1.546.608-2.94 1.009-4.284 1.394-3.696 1.062-7 2.01-11.992 6.867-1.307 1.587-4.139 4.838-5.01 5.144-.273.096-.643.013-1.032-.207z" fill="#93D124" />
    <path d="M29.243 61.553c.647 6.647-4.871 11.848-7.711 13.617-.141 2.619 2.922 4.492 3.908 3.892.789-.479 2.89-4.243 3.841-6.066 5.294-7.882 9.017-8.01 14.223-11.439 5.206-3.429 5.866-5.43 4.968-9.284-.898-3.854-2.047-3.956.89-9.073 2.935-5.117.584-7.155-.454-8.39-1.038-1.237-2.596-3.09-1.387-5.958.967-2.294-.468-4.693-1.306-5.606-3.604-5.81-9.025-4.917-9.388-.03-.29 3.91-1.658 4.696-2.306 4.6-1.004-.012-2.832.733-2.114 3.817.898 3.854 1.247 8.576-1.356 10.29a3.78 3.78 0 0 0-1.594 4.435c1.662 5.523.349 4.72-1.653 7.404-1.602 2.146.292 6.088 1.44 7.791z" fill="#B8ED5A" />
    <path fill-rule="evenodd" clip-rule="evenodd" d="M21.532 75.17c2.84-1.77 8.358-6.97 7.711-13.617-1.147-1.703-3.04-5.645-1.44-7.791.46-.615.881-1.046 1.24-1.413 1.208-1.234 1.695-1.732.414-5.991a3.781 3.781 0 0 1 1.594-4.435c2.603-1.714 2.254-6.436 1.357-10.29-.719-3.084 1.11-3.83 2.113-3.817.648.096 2.015-.69 2.306-4.6.363-4.887 5.784-5.78 9.388.03.838.913 2.273 3.312 1.306 5.606-1.209 2.868.349 4.721 1.387 5.957.074.088.154.18.239.277 1.107 1.264 2.942 3.36.214 8.114-2.351 4.098-2.082 4.98-1.421 7.147.165.54.353 1.158.532 1.926.898 3.855.238 5.855-4.968 9.284-1.387.914-2.67 1.593-3.904 2.247-3.398 1.8-6.436 3.41-10.319 9.192-.951 1.823-3.052 5.587-3.84 6.067-.987.599-4.05-1.274-3.91-3.893zm9.47-1.148a72.132 72.132 0 0 1-1.99 3.545c-.384.635-.782 1.259-1.149 1.77a9.348 9.348 0 0 1-.572.727c-.168.19-.448.487-.813.708-.99.6-2.073.402-2.68.212-.71-.22-1.406-.621-2.01-1.12-1.178-.974-2.369-2.656-2.253-4.8a2 2 0 0 1 .939-1.591c1.217-.758 3.101-2.322 4.585-4.433 1.393-1.981 2.343-4.31 2.226-6.834-.605-.983-1.3-2.368-1.716-3.836-.458-1.612-.754-3.948.632-5.805a15.142 15.142 0 0 1 1.41-1.611c.034-.035.066-.069.098-.1.398-.41.45-.502.471-.549a.37.37 0 0 0 .025-.113 2.4 2.4 0 0 0-.012-.512c-.059-.547-.24-1.376-.637-2.697-.513-1.472-.684-4.702 2.395-6.73.514-.338.984-1.147 1.096-2.806.107-1.596-.159-3.521-.587-5.36-.452-1.939-.197-3.624.845-4.83.86-.995 2-1.363 2.891-1.43.192-.318.514-1.109.636-2.76.24-3.232 2.308-5.666 5.357-5.844 2.806-.164 5.614 1.648 7.632 4.82a8.9 8.9 0 0 1 1.616 2.84c.447 1.306.658 3.012-.073 4.746-.398.945-.314 1.594-.12 2.108.23.612.654 1.141 1.196 1.786.045.054.105.12.174.198.495.556 1.509 1.695 1.943 3.31.528 1.964.181 4.303-1.461 7.165-1.46 2.544-1.633 3.419-1.618 3.957.008.294.076.615.258 1.225l.11.362c.165.542.378 1.24.574 2.08.485 2.083.662 4.11-.354 6.147-.955 1.916-2.816 3.517-5.462 5.26-1.604 1.057-2.992 1.792-4.27 2.469-3.242 1.716-5.775 3.057-9.332 8.326z" fill="#519E1B" />
    <path d="M22.878 78.161c.97-1.253 2.487-3.988 3.255-5.458 3.883-5.782 6.92-7.392 10.319-9.192 1.234-.654 2.516-1.334 3.903-2.248 5.206-3.428 5.866-5.429 4.968-9.283-.178-.768-.367-1.387-.532-1.926-.661-2.169-.93-3.05 1.422-7.148 2.727-4.753.892-6.85-.215-8.114-.084-.097-.165-.189-.238-.276-1.039-1.236-2.596-3.09-1.388-5.957.967-2.294-.467-4.694-1.305-5.607-1.121-1.807-2.418-2.966-3.684-3.558 1.977-.659 4.717.442 6.832 3.852.838.913 2.273 3.312 1.306 5.606-1.209 2.867.349 4.721 1.387 5.957.074.088.154.18.239.276 1.107 1.265 2.942 3.362.214 8.115-2.351 4.098-2.082 4.98-1.421 7.147.165.54.353 1.158.532 1.926.898 3.854.238 5.855-4.968 9.284-1.387.914-2.67 1.593-3.904 2.247-3.398 1.8-6.436 3.41-10.319 9.192-.951 1.823-3.052 5.587-3.84 6.066-.53.322-1.655-.067-2.563-.9z" fill="#9CD833" />
    <path fill-rule="evenodd" clip-rule="evenodd" d="M41.02 24.65a.5.5 0 0 1 .544.451c1.042 11.138-.274 18.384-3.755 28.29-4.34 12.347-9.84 19.882-13.88 22.934a.5.5 0 0 1-.602-.798c3.819-2.885 9.232-10.213 13.538-22.468 3.443-9.796 4.73-16.895 3.703-27.865a.5.5 0 0 1 .451-.544z" fill="#EFFFBA" />
    <path fill-rule="evenodd" clip-rule="evenodd" d="M42.672 54.32a.5.5 0 0 1-.066.704c-1.16.963-4.283 3.378-7.542 5.378a.5.5 0 0 1-.523-.852c3.208-1.97 6.292-4.354 7.427-5.295a.5.5 0 0 1 .704.065zM31.896 44.311a.5.5 0 0 1 .707-.022c.7.657 1.98 2.207 3.02 4.131 1.034 1.917 1.873 4.286 1.576 6.558a.5.5 0 0 1-.991-.13c.256-1.964-.47-4.108-1.466-5.953-.992-1.839-2.21-3.3-2.824-3.877a.5.5 0 0 1-.022-.707zM36.42 32.423a.5.5 0 0 1 .693.14c.82 1.23 2.674 4.727 3.686 9.075a.5.5 0 0 1-.974.227c-.983-4.223-2.786-7.61-3.544-8.749a.5.5 0 0 1 .139-.693zM45.087 38.322a.5.5 0 0 1-.011.707c-.679.657-1.765 1.843-2.794 3.244-1.033 1.406-1.98 2.994-2.418 4.458a.5.5 0 0 1-.958-.286c.486-1.626 1.511-3.322 2.57-4.764 1.063-1.448 2.187-2.676 2.904-3.37a.5.5 0 0 1 .707.01zM29.697 54.556a.5.5 0 0 1 .706.035c.636.702 1.52 2.237 2.146 3.99.626 1.752 1.035 3.83.611 5.6a.5.5 0 0 1-.972-.232c.356-1.49.02-3.347-.581-5.031-.601-1.683-1.43-3.086-1.945-3.656a.5.5 0 0 1 .035-.706z" fill="#EFFFBA" />
</svg>