<svg xmlns="http://www.w3.org/2000/svg" viewBox="0 0 512 512">
    <path d="M149.333 469.333c64 0 64 21.334 106.667 21.334s42.667-21.334 106.667-21.334c85.333 0 128-106.666 128-213.333S448 85.333 362.667 85.333C298.667 85.333 320 64 256 64s-42.667 21.333-106.667 21.333c-85.333 0-128 64-128 170.667s42.667 213.333 128 213.333z" style="fill:#c11107" />
    <path d="M384 320c0-149.333-42.667-256-128-256-64 0-42.667 21.333-106.667 21.333-85.333 0-128 64-128 170.667s42.667 213.333 128 213.333c64 0 64 21.334 106.667 21.334 0 0 128-21.334 128-170.667z" style="fill:#c82e25" />
    <ellipse cx="106.667" cy="170.667" rx="48.269" ry="36.202" transform="rotate(-45 106.667 170.667)" style="fill:#d2514a" />
    <ellipse cx="85.333" cy="149.333" rx="26.19" ry="14.966" transform="rotate(-45 85.333 149.333)" style="fill:#de807a" />
    <path d="M251.813 490.25C250.583 490 128 463.583 128 298.667c0-139.584 93.156-187.771 97.125-189.75l19.083 38.166c-2.875 1.48-73.541 39.396-73.541 151.584 0 128.854 86.02 148.979 89.677 149.77z" style="fill:#c11107" />
    <path d="M362.667 469.333v-42.666C418.094 426.667 448 338.729 448 256c0-128-64.23-128-85.333-128V85.333c47.802 0 128 22.167 128 170.667 0 102.75-40.052 213.333-128 213.333z" style="fill:#af0a00" />
    <path d="m362.667 128 53.243-14.124S405.333 64 341.333 64 256 85.333 256 85.333 234.667 64 192 64s-64 0-85.333-21.333c0 0 0 64 85.333 64 0 0-64 42.666-64 85.333 0 0 42.667-42.667 85.333-42.667C192 170.667 192 197.674 192 234.667c0 0 41.563-62.369 106.667-64 40.687 22.448 64 58.24 64 85.333 0 0 42.666-21.333 42.666-64s-42.666-64-42.666-64z" style="fill:#ef7f00" />
    <path d="m156.688 169.313-11.563-17.917C169.167 135.875 192.115 128 213.333 128h25.75v21.333h-25.75c-16.802 0-36.385 6.917-56.645 19.98zM364.844 256.375l-4.396-15.938c-7.156-25.958-30.833-52.687-61.781-69.77h-.042c-38.854.958-69.25 23.333-87.906 41.937l-15.063-15.125c21.406-21.333 56.563-47 102.48-48.146l5.791-.125L308.97 152c29.958 16.52 53.51 40.438 65.781 66.125 5.219-6.98 9.25-15.75 9.25-26.125h21.333c0 25.354-15.104 43.25-27.78 53.813z" style="fill:#e76400" />
    <path transform="rotate(-14.877 367.339 115.719)" style="fill:#e76400" d="M331.725 105.049h71.227v21.34h-71.227z" />
    <circle cx="288" cy="138.667" r="32" style="fill:#e76400" />
    <path d="M256 122.042a27.292 27.292 0 0 0 27.292 27.291 27.287 27.287 0 0 0 22.718-12.2c8.153-12.163 44.429-52.339 66.16-66.37A26.479 26.479 0 0 0 384 48.447a27.115 27.115 0 0 0-27.115-27.115 54.415 54.415 0 0 0-31.632 10.024c-11.131 7.915-47.404 41.849-59.562 59.137A54.87 54.87 0 0 0 256 122.042z" style="fill:#f59707" />
    <path d="M283.292 149.333A27.325 27.325 0 0 1 256 122.042h21.333c0 5.27 7.886 7.812 10.97 3.208 8.79-13.104 47.145-56.167 72.29-72.396l11.563 17.917c-21.614 13.958-58.01 54.25-66.146 66.354a27.343 27.343 0 0 1-22.718 12.208z" style="fill:#ef7f00" />
    <ellipse cx="234.667" cy="277.333" rx="42.667" ry="64" style="fill:#d2514a" />
</svg>